<svg xmlns="http://www.w3.org/2000/svg" version="1.1" xmlns:xlink="http://www.w3.org/1999/xlink" xmlns:svgjs="http://svgjs.dev/svgjs" width="1000" height="1000" viewBox="0 0 1000 1000"><rect width="1000" height="1000" fill="#ffc77d"></rect><g transform="matrix(0.7,0,0,0.7,149.57577141708862,415.1532041844828)"><svg viewBox="0 0 396 96" data-background-color="#ffc77d" preserveAspectRatio="xMidYMid meet" height="242" width="1000" xmlns="http://www.w3.org/2000/svg" xmlns:xlink="http://www.w3.org/1999/xlink"><g id="tight-bounds" transform="matrix(1,0,0,1,0.24000439227455672,0.08319007254814892)"><svg viewBox="0 0 395.52 95.83361851438707" height="95.83361851438707" width="395.52"><g><svg viewBox="0 0 395.52 95.83361851438707" height="95.83361851438707" width="395.52"><g><svg viewBox="0 0 395.52 95.83361851438707" height="95.83361851438707" width="395.52"><g><svg viewBox="0 0 395.52 95.83361851438707" height="95.83361851438707" width="395.52"><g><svg viewBox="0 0 395.52 53.46097383592017" height="53.46097383592017" width="395.52"><g transform="matrix(1,0,0,1,0,0)"><svg width="395.52" viewBox="1.510009527206421 -37.70000076293945 308.29998779296875 38.68000030517578" height="53.46097383592017" data-palette-color="#a24e19"><svg></svg><g class="undefined-text-0" data-fill-palette-color="primary" id="text-0"><path xmlns="http://www.w3.org/2000/svg" d="M40.14-24.17v0c0 0.553-0.033 1.073-0.1 1.56-0.067 0.487-0.18 0.993-0.34 1.52v0c-0.2 0.553-0.577 1.08-1.13 1.58-0.553 0.507-1.17 0.98-1.85 1.42-0.687 0.44-1.387 0.813-2.1 1.12-0.72 0.313-1.323 0.55-1.81 0.71v0c0.167 0.033 0.493 0.09 0.98 0.17 0.487 0.08 1 0.187 1.54 0.32 0.533 0.127 1.03 0.28 1.49 0.46 0.453 0.18 0.747 0.367 0.88 0.56v0c0.227 0.393 0.413 0.873 0.56 1.44 0.147 0.573 0.25 1.177 0.31 1.81 0.067 0.633 0.117 1.253 0.15 1.86 0.033 0.6 0.05 1.127 0.05 1.58v0c0 0.167 0 0.34 0 0.52 0 0.173-0.017 0.343-0.05 0.51v0c-0.067 0.327-0.293 0.757-0.68 1.29-0.393 0.54-0.85 1.087-1.37 1.64-0.52 0.553-1.033 1.067-1.54 1.54-0.5 0.467-0.883 0.8-1.15 1v0c-0.353 0.26-0.703 0.487-1.05 0.68-0.34 0.193-0.703 0.373-1.09 0.54v0c-0.293 0.127-0.92 0.223-1.88 0.29-0.96 0.067-1.98 0.123-3.06 0.17-1.073 0.053-2.08 0.087-3.02 0.1-0.947 0.013-1.583 0.02-1.91 0.02v0c-2.6 0-5.17-0.04-7.71-0.12-2.54-0.08-5.113-0.187-7.72-0.32v0c0.067-2.307 0.117-4.607 0.15-6.9 0.033-2.3 0.05-4.62 0.05-6.96v0c0-2.64-0.083-5.26-0.25-7.86-0.16-2.607-0.337-5.213-0.53-7.82v0l-3.76-0.34c-0.167-1.3-0.29-2.577-0.37-3.83-0.08-1.253-0.187-2.517-0.32-3.79v0c2.673 0.067 5.343 0.133 8.01 0.2 2.673 0.067 5.343 0.133 8.01 0.2v0c1.14 0.027 2.59 0.13 4.35 0.31 1.753 0.18 3.55 0.417 5.39 0.71 1.84 0.293 3.583 0.65 5.23 1.07 1.64 0.427 2.933 0.9 3.88 1.42v0c0.713 0.393 1.307 0.98 1.78 1.76 0.473 0.78 0.857 1.633 1.15 2.56 0.293 0.927 0.503 1.863 0.63 2.81 0.133 0.947 0.2 1.777 0.2 2.49zM27.15-24.37v0c0-0.32-0.017-0.733-0.05-1.24-0.033-0.507-0.1-1.02-0.2-1.54-0.093-0.52-0.223-1.007-0.39-1.46-0.16-0.46-0.353-0.837-0.58-1.13v0c-0.067-0.093-0.247-0.173-0.54-0.24-0.293-0.067-0.61-0.117-0.95-0.15-0.34-0.033-0.673-0.05-1-0.05-0.327 0-0.54 0-0.64 0v0c-1.627 0-3.237 0.09-4.83 0.27-1.593 0.18-3.19 0.4-4.79 0.66v0c0.2 1.593 0.38 3.19 0.54 4.79 0.16 1.593 0.357 3.187 0.59 4.78v0c0.387 0 1.15-0.033 2.29-0.1 1.14-0.06 2.353-0.14 3.64-0.24 1.287-0.1 2.483-0.223 3.59-0.37 1.107-0.147 1.823-0.317 2.15-0.51v0c0.553-0.36 0.887-0.88 1-1.56 0.113-0.687 0.17-1.323 0.17-1.91zM26.76-10.6v0c0-0.487-0.067-0.98-0.2-1.48-0.127-0.507-0.387-0.923-0.78-1.25v0c-0.1-0.1-0.327-0.18-0.68-0.24-0.36-0.067-0.737-0.11-1.13-0.13-0.387-0.013-0.76-0.03-1.12-0.05-0.36-0.013-0.603-0.02-0.73-0.02v0c-1.4 0-2.783 0.073-4.15 0.22-1.367 0.147-2.733 0.3-4.1 0.46v0l0.78 6.21c0.16 0 0.543-0.017 1.15-0.05 0.6-0.033 1.3-0.077 2.1-0.13 0.793-0.047 1.637-0.103 2.53-0.17 0.9-0.06 1.74-0.14 2.52-0.24 0.78-0.1 1.447-0.207 2-0.32 0.553-0.113 0.897-0.25 1.03-0.41v0c0.293-0.36 0.497-0.737 0.61-1.13 0.113-0.387 0.17-0.81 0.17-1.27zM77.44-0.15v0l-7.42 1.13c-0.52-1.66-1.04-3.313-1.56-4.96-0.52-1.647-1.027-3.3-1.52-4.96v0l-12.01 0.44-1.51 6.5h-7.52c0.453-5.533 0.923-11.037 1.41-16.51 0.493-5.467 0.967-10.95 1.42-16.45v0c2.347-0.393 4.683-0.72 7.01-0.98 2.327-0.26 4.677-0.39 7.05-0.39v0c2.9 0 5.797 0.05 8.69 0.15v0c0.527 3.387 1.04 6.763 1.54 10.13 0.507 3.367 1.037 6.743 1.59 10.13v0c0.393 2.673 0.823 5.31 1.29 7.91 0.473 2.607 0.987 5.227 1.54 7.86zM55.86-15.33l9.37-0.25c-0.027-0.293-0.107-0.837-0.24-1.63-0.133-0.8-0.28-1.647-0.44-2.54-0.16-0.893-0.347-1.707-0.56-2.44-0.213-0.733-0.417-1.167-0.61-1.3v0c-0.067-0.033-0.22-0.063-0.46-0.09-0.247-0.033-0.51-0.067-0.79-0.1-0.273-0.033-0.54-0.05-0.8-0.05-0.26 0-0.44 0-0.54 0v0c-0.16 0-0.38 0-0.66 0-0.273 0-0.567 0.007-0.88 0.02-0.307 0.02-0.6 0.063-0.88 0.13-0.273 0.06-0.46 0.14-0.56 0.24v0c-0.067 0.033-0.147 0.243-0.24 0.63-0.1 0.393-0.223 0.877-0.37 1.45-0.147 0.567-0.293 1.177-0.44 1.83-0.147 0.647-0.283 1.263-0.41 1.85-0.133 0.587-0.24 1.093-0.32 1.52-0.08 0.42-0.137 0.663-0.17 0.73zM109.42-28.42v0 3.42l-9.42 0.49c-0.133 1.887-0.23 3.757-0.29 5.61-0.067 1.86-0.1 3.717-0.1 5.57v0c0 2.28-0.057 4.55-0.17 6.81-0.113 2.26-0.253 4.513-0.42 6.76v0c-1.167 0.067-2.337 0.127-3.51 0.18-1.173 0.047-2.347 0.07-3.52 0.07v0c-0.42 0-0.833-0.01-1.24-0.03-0.407-0.013-0.807-0.02-1.2-0.02v0c0.067-1.987 0.123-3.963 0.17-5.93 0.047-1.973 0.07-3.937 0.07-5.89v0c0-1.953-0.047-3.913-0.14-5.88-0.1-1.967-0.213-3.943-0.34-5.93v0c-0.947 0.033-1.9 0.063-2.86 0.09-0.96 0.033-1.93 0.05-2.91 0.05v0c-0.553 0-1.097 0-1.63 0-0.54 0-1.087-0.017-1.64-0.05v0c-0.093-2.407-0.157-4.797-0.19-7.17-0.033-2.38-0.067-4.757-0.1-7.13v0c4.88 0.093 9.73 0.23 14.55 0.41 4.82 0.18 9.653 0.337 14.5 0.47v0c0.133 1.4 0.233 2.757 0.3 4.07 0.06 1.32 0.09 2.663 0.09 4.03zM142.87-28.42v0 3.42l-9.42 0.49c-0.133 1.887-0.233 3.757-0.3 5.61-0.06 1.86-0.09 3.717-0.09 5.57v0c0 2.28-0.057 4.55-0.17 6.81-0.12 2.26-0.26 4.513-0.42 6.76v0c-1.173 0.067-2.343 0.127-3.51 0.18-1.173 0.047-2.347 0.07-3.52 0.07v0c-0.427 0-0.843-0.01-1.25-0.03-0.407-0.013-0.803-0.02-1.19-0.02v0c0.067-1.987 0.123-3.963 0.17-5.93 0.047-1.973 0.07-3.937 0.07-5.89v0c0-1.953-0.047-3.913-0.14-5.88-0.1-1.967-0.217-3.943-0.35-5.93v0c-0.94 0.033-1.89 0.063-2.85 0.09-0.96 0.033-1.93 0.05-2.91 0.05v0c-0.553 0-1.097 0-1.63 0-0.54 0-1.087-0.017-1.64-0.05v0c-0.1-2.407-0.163-4.797-0.19-7.17-0.033-2.38-0.067-4.757-0.1-7.13v0c4.88 0.093 9.73 0.23 14.55 0.41 4.82 0.18 9.653 0.337 14.5 0.47v0c0.133 1.4 0.23 2.757 0.29 4.07 0.067 1.32 0.1 2.663 0.1 4.03zM171.14-10.35l0.74 9.13c-3.88 0.293-7.73 0.57-11.55 0.83-3.827 0.26-7.677 0.503-11.55 0.73v0c-0.16-6.213-0.29-12.39-0.39-18.53-0.1-6.133-0.28-12.327-0.54-18.58v0c2.18-0.033 4.33-0.097 6.45-0.19 2.113-0.1 4.243-0.23 6.39-0.39v0c-0.353 2.407-0.687 4.823-1 7.25-0.307 2.427-0.543 4.86-0.71 7.3v0c-0.127 2.047-0.23 4.09-0.31 6.13-0.087 2.033-0.16 4.073-0.22 6.12v0c2.147 0.067 4.27 0.1 6.37 0.1 2.1 0 4.207 0.033 6.32 0.1zM203.37-36.23l0.54 6.49c-3.193 0.167-6.36 0.34-9.5 0.52-3.14 0.173-6.307 0.393-9.5 0.66v0l-0.1 3.85 12.6-0.73c0.167 1.107 0.29 2.197 0.37 3.27 0.08 1.073 0.12 2.163 0.12 3.27v0c0 0.46-0.007 0.933-0.02 1.42-0.02 0.487-0.03 0.96-0.03 1.42v0l-11.72 2.1 0.74 6.05c2.473-0.16 4.937-0.397 7.39-0.71 2.46-0.307 4.943-0.573 7.45-0.8v0c0.227 1.627 0.453 3.26 0.68 4.9 0.227 1.647 0.553 3.25 0.98 4.81v0c-4.62-0.033-9.21-0.023-13.77 0.03-4.56 0.047-9.15 0.07-13.77 0.07v0c0.1-3.807 0.213-7.6 0.34-11.38 0.133-3.773 0.2-7.58 0.2-11.42v0-0.93c0-2.213-0.033-4.42-0.1-6.62-0.067-2.193-0.133-4.413-0.2-6.66v0c2.573 0.033 5.137 0.04 7.69 0.02 2.56-0.013 5.14-0.02 7.74-0.02v0c1.987 0 3.967 0.04 5.94 0.12 1.967 0.08 3.943 0.17 5.93 0.27zM244.09-24.51v0c0 0.713-0.04 1.577-0.12 2.59-0.08 1.007-0.21 2.03-0.39 3.07-0.18 1.04-0.433 2.017-0.76 2.93-0.327 0.913-0.733 1.63-1.22 2.15v0c-0.193 0.227-0.82 0.447-1.88 0.66-1.06 0.213-2.33 0.423-3.81 0.63-1.48 0.213-3.067 0.417-4.76 0.61-1.693 0.2-3.297 0.373-4.81 0.52-1.513 0.147-2.823 0.267-3.93 0.36-1.107 0.1-1.807 0.15-2.1 0.15v0l-0.39 10.16c-1.007 0.06-2 0.067-2.98 0.02-0.973-0.047-1.967-0.07-2.98-0.07v0c-0.647 0-1.297 0.017-1.95 0.05-0.647 0.033-1.297 0.08-1.95 0.14v0c0-3.06 0-6.087 0-9.08 0-2.993-0.067-6.02-0.2-9.08v0c-0.093-2.767-0.183-5.517-0.27-8.25-0.08-2.733-0.15-5.487-0.21-8.26v0c3.347-0.227 6.723-0.51 10.13-0.85 3.4-0.34 6.793-0.51 10.18-0.51v0c0.587 0 1.513 0.057 2.78 0.17 1.273 0.113 2.607 0.293 4 0.54 1.4 0.24 2.697 0.54 3.89 0.9 1.187 0.36 1.973 0.767 2.36 1.22v0c0.267 0.293 0.487 0.863 0.66 1.71 0.18 0.847 0.32 1.75 0.42 2.71 0.1 0.96 0.173 1.897 0.22 2.81 0.047 0.907 0.07 1.573 0.07 2zM230.42-24.85v0c0-0.293-0.017-0.67-0.05-1.13-0.033-0.453-0.09-0.9-0.17-1.34-0.08-0.44-0.203-0.847-0.37-1.22-0.16-0.373-0.37-0.643-0.63-0.81v0c-0.16-0.093-0.42-0.173-0.78-0.24-0.36-0.067-0.737-0.117-1.13-0.15-0.387-0.033-0.76-0.057-1.12-0.07-0.36-0.013-0.62-0.02-0.78-0.02v0c-1.207 0-2.41 0.063-3.61 0.19-1.207 0.133-2.427 0.297-3.66 0.49v0c0.093 0.973 0.15 1.933 0.17 2.88 0.013 0.947 0.02 1.89 0.02 2.83v0c0 1.533 0.05 3.08 0.15 4.64v0c0.42 0 1.15-0.023 2.19-0.07 1.047-0.053 2.14-0.137 3.28-0.25 1.133-0.113 2.207-0.273 3.22-0.48 1.007-0.213 1.69-0.5 2.05-0.86v0c0.587-0.553 0.937-1.23 1.05-2.03 0.113-0.793 0.17-1.58 0.17-2.36zM276.86-36.23l0.53 6.49c-3.187 0.167-6.35 0.34-9.49 0.52-3.147 0.173-6.313 0.393-9.5 0.66v0l-0.1 3.85 12.6-0.73c0.16 1.107 0.28 2.197 0.36 3.27 0.087 1.073 0.13 2.163 0.13 3.27v0c0 0.46-0.01 0.933-0.03 1.42-0.013 0.487-0.02 0.96-0.02 1.42v0l-11.72 2.1 0.73 6.05c2.473-0.16 4.94-0.397 7.4-0.71 2.46-0.307 4.943-0.573 7.45-0.8v0c0.227 1.627 0.453 3.26 0.68 4.9 0.227 1.647 0.553 3.25 0.98 4.81v0c-4.627-0.033-9.217-0.023-13.77 0.03-4.56 0.047-9.15 0.07-13.77 0.07v0c0.093-3.807 0.207-7.6 0.34-11.38 0.127-3.773 0.19-7.58 0.19-11.42v0-0.93c0-2.213-0.03-4.42-0.09-6.62-0.067-2.193-0.133-4.413-0.2-6.66v0c2.573 0.033 5.137 0.04 7.69 0.02 2.553-0.013 5.133-0.02 7.74-0.02v0c1.987 0 3.963 0.04 5.93 0.12 1.973 0.08 3.953 0.17 5.94 0.27zM309.81-28.42v0 3.42l-9.42 0.49c-0.127 1.887-0.223 3.757-0.29 5.61-0.067 1.86-0.1 3.717-0.1 5.57v0c0 2.28-0.057 4.55-0.17 6.81-0.113 2.26-0.253 4.513-0.42 6.76v0c-1.167 0.067-2.337 0.127-3.51 0.18-1.173 0.047-2.347 0.07-3.52 0.07v0c-0.42 0-0.833-0.01-1.24-0.03-0.407-0.013-0.807-0.02-1.2-0.02v0c0.067-1.987 0.123-3.963 0.17-5.93 0.053-1.973 0.08-3.937 0.08-5.89v0c0-1.953-0.05-3.913-0.15-5.88-0.1-1.967-0.213-3.943-0.34-5.93v0c-0.947 0.033-1.9 0.063-2.86 0.09-0.96 0.033-1.927 0.05-2.9 0.05v0c-0.553 0-1.1 0-1.64 0-0.54 0-1.087-0.017-1.64-0.05v0c-0.093-2.407-0.157-4.797-0.19-7.17-0.033-2.38-0.067-4.757-0.1-7.13v0c4.887 0.093 9.737 0.23 14.55 0.41 4.82 0.18 9.653 0.337 14.5 0.47v0c0.133 1.4 0.233 2.757 0.3 4.07 0.06 1.32 0.09 2.663 0.09 4.03z" fill="#a24e19" fill-rule="nonzero" stroke="none" stroke-width="1" stroke-linecap="butt" stroke-linejoin="miter" stroke-miterlimit="10" stroke-dasharray="" stroke-dashoffset="0" font-family="none" font-weight="none" font-size="none" text-anchor="none" style="mix-blend-mode: normal" data-fill-palette-color="primary" opacity="1"></path></g></svg></g></svg></g><g transform="matrix(1,0,0,1,0,65.17323886281912)"><svg viewBox="0 0 229.60143902399088 30.660379651567943" height="30.660379651567943" width="229.60143902399088"><g transform="matrix(1,0,0,1,0,0)"><svg width="229.60143902399088" viewBox="3.3499999046325684 -34.54999923706055 261.3299865722656 34.89999771118164" height="30.660379651567943" data-palette-color="#da7636"><path d="M35.3-29.95L35.3-4.75Q35.3-2.55 34-1.28 32.7 0 30.2 0L30.2 0Q29.55 0 28.9-0.15 28.25-0.3 27.53-0.7 26.8-1.1 26.25-1.45 25.7-1.8 24.88-2.53 24.05-3.25 23.58-3.68 23.1-4.1 22.1-5.05 21.1-6 20.65-6.45L20.65-6.45 11.5-15.1 11.5-4.25Q11.5-1.8 10.58-0.9 9.65 0 7.65 0L7.65 0Q5.45 0 4.4-1 3.35-2 3.35-4.35L3.35-4.35 3.35-28.5Q3.35-31.35 4.8-32.8 6.25-34.25 8.95-34.25L8.95-34.25Q10.8-34.25 11.93-33.68 13.05-33.1 14.6-31.6L14.6-31.6 27.25-19 27.25-29.9Q27.25-32.05 28.33-33.13 29.4-34.2 31.25-34.2L31.25-34.2Q33.4-34.2 34.35-33.2 35.3-32.2 35.3-29.95L35.3-29.95ZM53.25-13.4L53.25-6.95Q53.25-3.55 51.75-1.78 50.25 0 47.4 0L47.4 0Q44.7 0 43.2-1.63 41.7-3.25 41.7-7.15L41.7-7.15 41.7-28.25Q41.7-29.85 42.12-31.03 42.55-32.2 43.35-32.9 44.15-33.6 45.15-33.93 46.15-34.25 47.4-34.25L47.4-34.25 63.8-34.25Q66.7-34.25 68.12-33.35 69.55-32.45 69.55-30.1L69.55-30.1Q69.55-27.9 68.32-27.03 67.1-26.15 64.3-26.15L64.3-26.15 53.25-26.15 53.25-20.3 62.05-20.3Q63.4-20.3 64.32-20.1 65.25-19.9 65.82-19.43 66.4-18.95 66.62-18.28 66.85-17.6 66.85-16.55L66.85-16.55Q66.85-14.85 65.6-14.13 64.35-13.4 61.6-13.4L61.6-13.4 53.25-13.4ZM95.5-25.6L95.5-7.5Q95.5-4.65 94.8-2.98 94.1-1.3 92.87-0.65 91.65 0 89.65 0L89.65 0Q86.7 0 85.37-1.58 84.05-3.15 84-7.15L84-7.15 83.9-25.6 79.65-25.6Q76.5-25.6 74.92-26.6 73.35-27.6 73.35-30.15L73.35-30.15Q73.35-31.7 73.97-32.6 74.6-33.5 75.85-33.88 77.1-34.25 79.2-34.25L79.2-34.25 100.6-34.25Q103.4-34.25 104.65-33.25 105.9-32.25 105.9-29.8L105.9-29.8Q105.9-28.15 105.17-27.23 104.45-26.3 103.25-25.95 102.05-25.6 100.15-25.6L100.15-25.6 95.5-25.6ZM143.84-25.85L143.84-25.85Q143.84-27.4 141.79-27.4L141.79-27.4Q139.69-27.4 138.19-25.05 136.69-22.7 136.69-17.2L136.69-17.2Q136.69-12.1 138.42-9.78 140.14-7.45 142.49-7.45L142.49-7.45Q143.24-7.45 143.87-7.75 144.49-8.05 144.89-8.65 145.29-9.25 145.29-10.1L145.29-10.1Q144.09-10.1 143.22-10.55 142.34-11 141.94-11.68 141.54-12.35 141.54-13.15L141.54-13.15Q141.54-14.95 142.49-15.85 143.44-16.75 145.74-16.75L145.74-16.75 151.79-16.75Q154.69-16.75 156.29-15.5 157.89-14.25 157.89-11.1L157.89-11.1Q157.89-6.5 153.49-3.08 149.09 0.35 143.04 0.35L143.04 0.35Q137.49 0.35 133.17-1.65 128.84-3.65 126.32-7.63 123.79-11.6 123.79-17.05L123.79-17.05Q123.79-25.15 128.69-29.85 133.59-34.55 141.69-34.55L141.69-34.55Q144.89-34.55 147.44-34.08 149.99-33.6 151.67-32.8 153.34-32 154.47-30.88 155.59-29.75 156.06-28.5 156.54-27.25 156.54-25.9L156.54-25.9Q156.54-24.95 156.24-24.08 155.94-23.2 155.17-22.33 154.39-21.45 152.79-20.9 151.19-20.35 148.94-20.35L148.94-20.35Q145.64-20.35 144.74-21.33 143.84-22.3 143.84-25.85ZM171.59 0.3L171.59 0.3Q167.64 0.3 165.04-2.93 162.44-6.15 162.44-11.75L162.44-11.75Q162.44-17.45 165.01-20.83 167.59-24.2 171.59-24.2L171.59-24.2Q175.64-24.2 179.09-21.35L179.09-21.35Q180.44-23.85 183.44-23.85L183.44-23.85Q186.14-23.85 187.64-22.68 189.14-21.5 189.14-18.35L189.14-18.35 189.14-5.35Q189.14-2.35 187.89-1.18 186.64 0 183.49 0L183.49 0Q180.19 0 179.14-1.85L179.14-1.85Q175.94 0.3 171.59 0.3ZM178.39-7.2L178.39-16.55Q177.54-18 176.19-18L176.19-18Q174.89-18 174.09-16.1 173.29-14.2 173.29-11.75L173.29-11.75Q173.29-9.45 174.04-7.65 174.79-5.85 176.14-5.85L176.14-5.85Q177.54-5.85 178.39-7.2L178.39-7.2ZM223.49-4.15L223.49-13.2Q223.49-16 221.24-16L221.24-16Q220.24-16 219.74-14.85 219.24-13.7 219.24-11.95L219.24-11.95Q219.24-9.3 219.16-7.55 219.09-5.8 218.84-4.4 218.59-3 218.24-2.2 217.89-1.4 217.29-0.88 216.69-0.35 215.94-0.18 215.19 0 214.04 0L214.04 0Q212.29 0 211.21-0.5 210.14-1 209.69-1.9 209.24-2.8 209.24-4.15L209.24-4.15 209.24-13.2Q209.24-16 206.99-16L206.99-16Q206.09-16 205.51-14.98 204.94-13.95 204.94-12.3L204.94-12.3 204.94-5.35Q204.94-2.35 203.69-1.18 202.44 0 199.29 0L199.29 0Q196.34 0 195.26-1.38 194.19-2.75 194.19-5.9L194.19-5.9 194.19-18.2Q194.19-20.75 195.56-22.3 196.94-23.85 199.24-23.85L199.24-23.85Q203.34-23.85 204.44-21.2L204.44-21.2Q206.34-22.6 208.16-23.15 209.99-23.7 212.44-23.7L212.44-23.7Q216.14-23.7 217.79-20.5L217.79-20.5Q218.04-20.7 218.29-20.9L218.29-20.9Q222.14-23.7 227.74-23.7L227.74-23.7Q231.29-23.7 232.84-21 234.39-18.3 234.39-11.95L234.39-11.95Q234.39-9.3 234.31-7.55 234.24-5.8 233.99-4.4 233.74-3 233.36-2.2 232.99-1.4 232.31-0.88 231.64-0.35 230.81-0.18 229.99 0 228.74 0L228.74 0Q226.84 0 225.66-0.5 224.49-1 223.99-1.9 223.49-2.8 223.49-4.15L223.49-4.15ZM252.83 0.3L252.83 0.3Q246.73 0.3 242.76-2.85 238.78-6 238.78-11.45L238.78-11.45Q238.78-17.35 242.71-20.78 246.63-24.2 252.83-24.2L252.83-24.2Q258.68-24.2 261.41-22.13 264.13-20.05 264.13-16.45L264.13-16.45Q264.13-15.75 263.96-15.1 263.78-14.45 263.41-13.83 263.03-13.2 262.41-12.68 261.78-12.15 260.98-11.73 260.18-11.3 259.08-11.08 257.98-10.85 256.73-10.85L256.73-10.85 249.68-10.8Q250.18-9.2 251.48-8.28 252.78-7.35 254.78-7.35L254.78-7.35Q256.93-7.35 259.18-7.9L259.18-7.9Q260.13-8.15 261.26-8.7 262.38-9.25 262.88-9.25L262.88-9.25Q263.73-9.25 264.21-8.75 264.68-8.25 264.68-7.5L264.68-7.5Q264.68-6.6 263.88-5.33 263.08-4.05 261.66-2.78 260.23-1.5 257.88-0.6 255.53 0.3 252.83 0.3ZM249.43-14L249.43-14Q252.88-14.05 253.18-14.05L253.18-14.05Q253.93-14.05 254.28-14.95L254.28-14.95Q254.53-15.6 254.53-16.75L254.53-16.75Q254.53-19.9 252.63-19.9L252.63-19.9Q251.93-19.9 251.26-19.15 250.58-18.4 250.08-17.03 249.58-15.65 249.43-14Z" opacity="1" transform="matrix(1,0,0,1,0,0)" fill="#da7636" class="undefined-text-1" data-fill-palette-color="secondary" id="text-1"></path></svg></g></svg></g></svg></g></svg></g></svg></g><defs></defs></svg><rect width="395.52" height="95.83361851438707" fill="none" stroke="none" visibility="hidden"></rect></g></svg></g></svg>